<svg xmlns="http://www.w3.org/2000/svg" viewBox="295 260 820 260">
  <defs>
    <clipPath id="slash-clip">
      <rect x="500" y="270" width="200" height="270"/>
    </clipPath>
  </defs>

  <!-- Re -->
  <g transform="translate(5,0)">
  <path d="M350.52 450.0H334.68V294.24H380.44Q391.88 294.24 401.67 296.44Q411.46 298.64 418.61 303.59Q425.76 308.54 429.72 316.46Q433.68 324.38 433.68 335.82Q433.68 344.4 430.6 351.44Q427.52 358.48 422.24 363.65Q416.96 368.82 409.7 371.9Q402.44 374.98 393.86 375.86L439.4 450.0H420.04L376.92 377.18H350.52ZM350.52 363.54H378.02Q397.16 363.54 407.5 356.61Q417.84 349.68 417.84 335.82Q417.84 328.12 414.98 322.84Q412.12 317.56 407.06 314.26Q402.0 310.96 394.74 309.42Q387.48 307.88 378.68 307.88H350.52Z M544.12 390.6Q543.46 376.08 534.77 366.51Q526.08 356.94 510.02 356.94Q502.54 356.94 496.16 359.69Q489.78 362.44 484.94 367.17Q480.1 371.9 477.24 377.95Q474.38 384.0 473.94 390.6ZM559.3 395.44Q559.3 396.98 559.3 398.74Q559.3 400.5 559.08 402.48H473.72Q473.94 410.18 476.8 417.0Q479.66 423.82 484.72 428.88Q489.78 433.94 496.6 436.91Q503.42 439.88 511.34 439.88Q523.0 439.88 531.47 434.49Q539.94 429.1 544.34 422.06L555.56 430.86Q546.32 442.52 535.21 447.58Q524.1 452.64 511.34 452.64Q499.9 452.64 490.11 448.57Q480.32 444.5 473.28 437.24Q466.24 429.98 462.17 420.08Q458.1 410.18 458.1 398.52Q458.1 386.86 462.06 376.96Q466.02 367.06 473.06 359.8Q480.1 352.54 489.56 348.47Q499.02 344.4 510.02 344.4Q522.12 344.4 531.36 348.47Q540.6 352.54 546.76 359.47Q552.92 366.4 556.11 375.64Q559.3 384.88 559.3 395.44Z" fill="#111111"/>
  </g>

  <!-- wire -->
  <path d="M691.78 387.04 716.64 470.64H717.08L744.8 387.04H759.32L787.48 470.64H787.92L812.56 387.04H828.4L795.84 490.0H779.56L752.06 406.62H751.62L724.56 490.0H708.28L675.72 387.04Z M869.1 490.0H854.14V387.04H869.1ZM872.18 347.44Q872.18 352.06 868.88 355.03Q865.58 358.0 861.62 358.0Q857.66 358.0 854.36 355.03Q851.06 352.06 851.06 347.44Q851.06 342.82 854.36 339.85Q857.66 336.88 861.62 336.88Q865.58 336.88 868.88 339.85Q872.18 342.82 872.18 347.44Z M908.92 409.7Q908.92 405.52 908.7 398.92Q908.48 392.32 908.04 387.04H922.34Q922.78 391.22 923.0 396.28Q923.22 401.34 923.22 404.64H923.66Q928.06 395.62 936.86 390.01Q945.66 384.4 956.66 384.4Q959.52 384.4 961.83 384.62Q964.14 384.84 966.56 385.5L964.58 399.58Q963.26 399.14 960.18 398.7Q957.1 398.26 954.02 398.26Q948.08 398.26 942.58 400.46Q937.08 402.66 933.01 407.39Q928.94 412.12 926.41 419.49Q923.88 426.86 923.88 437.2V490.0H908.92V409.7Z M1066.66 430.6Q1066.0 416.08 1057.31 406.51Q1048.62 396.94 1032.56 396.94Q1025.08 396.94 1018.7 399.69Q1012.32 402.44 1007.48 407.17Q1002.64 411.9 999.78 417.95Q996.92 424.0 996.48 430.6ZM1081.84 435.44Q1081.84 436.98 1081.84 438.74Q1081.84 440.5 1081.62 442.48H996.26Q996.48 450.18 999.34 457.0Q1002.2 463.82 1007.26 468.88Q1012.32 473.94 1019.14 476.91Q1025.96 479.88 1033.88 479.88Q1045.54 479.88 1054.01 474.49Q1062.48 469.1 1066.88 462.06L1078.1 470.86Q1068.86 482.52 1057.75 487.58Q1046.64 492.64 1033.88 492.64Q1022.44 492.64 1012.65 488.57Q1002.86 484.5 995.82 477.24Q988.78 469.98 984.71 460.08Q980.64 450.18 980.64 438.52Q980.64 426.86 984.6 416.96Q988.56 407.06 995.6 399.8Q1002.64 392.54 1012.1 388.47Q1021.56 384.4 1032.56 384.4Q1044.66 384.4 1053.9 388.47Q1063.14 392.54 1069.3 399.47Q1075.46 406.4 1078.65 415.64Q1081.84 424.88 1081.84 435.44Z" fill="#111111"/>

  <!-- Red slashes -->
  <g stroke="#E02020" stroke-width="14" stroke-linecap="butt" clip-path="url(#slash-clip)">
    <line x1="670" y1="200" x2="540" y2="610"/>
    <line x1="707" y1="200" x2="577" y2="610"/>
  </g>
</svg>
