<svg xmlns="http://www.w3.org/2000/svg" viewBox="88 100 572 135" role="img" aria-labelledby="title desc">
  <title id="title">Re:wire logo</title>

  <!-- Re — neutral -->
  <path d="M176.2 220.0 144.1 166.45H119.2V220.0H115.9V113.8H145.3Q151.15 113.8 157.15 114.85Q163.15 115.9 167.875 118.825Q172.6 121.75 175.6 126.85Q178.6 131.95 178.6 140.05Q178.6 147.55 175.75 152.5Q172.9 157.45 168.4 160.525Q163.9 163.6 158.425 164.95Q152.95 166.3 147.7 166.3L179.95 220.0ZM175.3 140.05Q175.3 133.15 172.6 128.575Q169.9 124.0 165.475 121.375Q161.05 118.75 155.275 117.7Q149.5 116.65 143.5 116.65H119.2V163.6H145.15Q159.85 163.6 167.575 157.45Q175.3 151.3 175.3 140.05Z M201.7 184.75Q201.7 191.05 203.575 197.2Q205.45 203.35 209.275 208.225Q213.1 213.1 218.95 216.1Q224.8 219.1 232.75 219.1Q240.85 219.1 247.15 215.875Q253.45 212.65 258.1 206.5L260.5 208.6Q255.4 215.2 248.575 218.65Q241.75 222.1 232.75 222.1Q225.1 222.1 218.8 219.325Q212.5 216.55 207.925 211.6Q203.35 206.65 200.875 199.75Q198.4 192.85 198.4 184.75Q198.4 176.95 200.95 170.35Q203.5 163.75 207.925 158.95Q212.35 154.15 218.35 151.525Q224.35 148.9 231.25 148.9Q239.35 148.9 245.35 151.75Q251.35 154.6 255.325 159.25Q259.3 163.9 261.25 169.825Q263.2 175.75 263.2 181.9V184.75ZM260.05 181.9Q259.9 175.15 257.725 169.6Q255.55 164.05 251.8 160.075Q248.05 156.1 242.8 153.925Q237.55 151.75 231.1 151.75Q223.3 151.75 217.75 154.975Q212.2 158.2 208.675 162.925Q205.15 167.65 203.5 172.825Q201.85 178.0 201.85 181.9Z" fill="#C8CCD0"/>

  <!-- Hollow colon — orange -->
  <circle cx="315" cy="164.5" r="12" fill="none" stroke="#F56B3A" stroke-width="4"/>
  <circle cx="315" cy="208" r="12" fill="none" stroke="#F56B3A" stroke-width="4"/>

  <!-- w — neutral -->
  <path d="M435.35 220.0H430.85L408.35 154.6H408.05L385.7 220.0H381.2L361.1 151.0H364.55L383.45 216.7H383.75L405.95 151.0H410.6L432.95 216.7H433.25L452.15 151.0H455.6Z" fill="#C8CCD0"/>

  <!-- i — red (text glyph + custom overlay) -->
  <path d="M486.6 125.05Q485.25 125.05 484.2 124.0Q483.15 122.95 483.15 121.15Q483.15 119.5 484.2 118.45Q485.25 117.4 486.6 117.4Q487.95 117.4 489.0 118.45Q490.05 119.5 490.05 121.15Q490.05 122.95 488.925 124.0Q487.8 125.05 486.6 125.05ZM484.95 220.0V151.0H488.25V220.0Z" fill="#E02020"/>
  <line x1="486.6" y1="122" x2="486.6" y2="218" stroke="#E02020" stroke-width="2" stroke-linecap="round"/>
  <circle cx="486.6" cy="122" r="12" fill="#0C0D0F" stroke="#E02020" stroke-width="4"/>

  <!-- re — neutral -->
  <path d="M524.2 169.15Q527.2 158.35 533.8 153.625Q540.4 148.9 548.05 148.9Q548.8 148.9 549.4 148.9Q550.0 148.9 550.75 149.05V151.9Q550.15 151.75 549.625 151.75Q549.1 151.75 548.8 151.75Q542.2 151.75 537.55 154.675Q532.9 157.6 529.9 162.325Q526.9 167.05 525.475 172.825Q524.05 178.6 524.05 184.3V220.0H520.75V168.4Q520.75 166.75 520.675 164.35Q520.6 161.95 520.525 159.475Q520.45 157.0 520.3 154.75Q520.15 152.5 520.0 151.0H523.3Q523.45 152.5 523.525 154.75Q523.6 157.0 523.675 159.625Q523.75 162.25 523.825 164.725Q523.9 167.2 523.9 169.15H524.2Z M565.15 184.75Q565.15 191.05 567.025 197.2Q568.9 203.35 572.725 208.225Q576.55 213.1 582.4 216.1Q588.25 219.1 596.2 219.1Q604.3 219.1 610.6 215.875Q616.9 212.65 621.55 206.5L623.95 208.6Q618.85 215.2 612.025 218.65Q605.2 222.1 596.2 222.1Q588.55 222.1 582.25 219.325Q575.95 216.55 571.375 211.6Q566.8 206.65 564.325 199.75Q561.85 192.85 561.85 184.75Q561.85 176.95 564.4 170.35Q566.95 163.75 571.375 158.95Q575.8 154.15 581.8 151.525Q587.8 148.9 594.7 148.9Q602.8 148.9 608.8 151.75Q614.8 154.6 618.775 159.25Q622.75 163.9 624.7 169.825Q626.65 175.75 626.65 181.9V184.75ZM623.5 181.9Q623.35 175.15 621.175 169.6Q619.0 164.05 615.25 160.075Q611.5 156.1 606.25 153.925Q601.0 151.75 594.55 151.75Q586.75 151.75 581.2 154.975Q575.65 158.2 572.125 162.925Q568.6 167.65 566.95 172.825Q565.3 178.0 565.3 181.9Z" fill="#C8CCD0"/>
</svg>
